<svg xmlns="http://www.w3.org/2000/svg" xmlns:xlink="http://www.w3.org/1999/xlink" xmlns:fi="http://pattern.flaticon.com/" x="0" y="0" width="700" height="350" viewBox="0 0 700 350"><rect x="0px" y="0px" width="100%" height="100%" opacity="1" fill="#ffffff"/><defs><g transform="matrix(0.13671875 0 0 0.13671875 140 140)" id="L1_46"><g><circle cx="256" cy="137" r="117" fill="#fdade0"/><path d="m256 20.104c-5.239 0-10.396.348-15.453 1.013 57.557 7.566 101.988 56.806 101.988 116.428s-44.431 108.862-101.988 116.428c5.057.665 10.214 1.013 15.453 1.013 64.861 0 117.441-52.58 117.441-117.441s-52.58-117.441-117.441-117.441z" fill="#fd92d2"/><ellipse cx="256px" cy="137px" rx="28px" ry="117px" fill="#ffdff3"/><g fill="#ffceed"><path d="m266.05 27.452c-3.129-4.747-6.514-7.348-10.049-7.348-.001 0-.001 0-.002 0s-.001 0-.002 0c-2.09.001-4.127.916-6.091 2.639 5.537 1.191 10.929 2.769 16.144 4.709z"/><path d="m266.05 247.637c-5.215 1.941-10.607 3.518-16.143 4.709 1.964 1.723 4.002 2.639 6.092 2.639 3.536 0 6.922-2.6 10.051-7.348z"/></g></g><g><circle cx="394" cy="374" r="117" fill="#b1d8fc"/><path d="m477.602 291.412c-26.871-26.871-63.523-37.99-98.496-33.374 24.718 3.263 48.598 14.382 67.59 33.374 45.863 45.863 45.863 120.223 0 166.086-18.992 18.992-42.872 30.111-67.59 33.374 34.973 4.616 71.625-6.503 98.496-33.374 45.864-45.863 45.864-120.222 0-166.086z" fill="#88c7fc"/><ellipse cx="394px" cy="374px" rx="28px" ry="117px" transform="matrix(0.707 -0.707 0.707 0.707 -149.216 388.671)" fill="#e9f5ff"/><path d="m470.414 423.454c-4.987 10.869-11.724 21.131-20.205 30.368 13.107 6.425 22.967 8.102 27.392 3.678 0 0 0 0 .001-.001 0 0 .001 0 .001-.001 5.145-5.146 2.05-17.634-7.189-34.044z" fill="#d7ebfd"/><g fill="#e9f5ff"><circle cx="319" cy="380" r="7"/><circle cx="370" cy="452" r="7"/><circle cx="477" cy="365" r="7"/><circle cx="408" cy="299" r="7"/></g></g><g><circle cx="117" cy="374" r="117" fill="#ade499"/><path d="m200.484 291.412c-26.871-26.871-63.523-37.99-98.496-33.374 24.718 3.263 48.598 14.382 67.59 33.374 45.863 45.863 45.863 120.223 0 166.086-18.992 18.992-42.872 30.111-67.59 33.374 34.973 4.616 71.625-6.503 98.496-33.374 45.863-45.863 45.863-120.222 0-166.086z" fill="#87d8a2"/><ellipse cx="117px" cy="374px" rx="117px" ry="28px" transform="matrix(0.707 -0.707 0.707 0.707 -230.382 192.719)" fill="#d3edc7"/><path d="m200.484 291.412c-4.426-4.425-14.286-2.749-27.393 3.677 8.481 9.236 15.218 19.498 20.205 30.368 9.238-16.411 12.333-28.899 7.188-34.045z" fill="#ade499"/></g><g fill="#ffdff3"><circle cx="189" cy="94" r="7"/><circle cx="189" cy="187" r="7"/><circle cx="326" cy="165" r="7"/><circle cx="313" cy="78" r="7"/></g><circle cx="187" cy="402" r="7" fill="#d3edc7"/><circle cx="131" cy="449" r="7" fill="#d3edc7"/><circle cx="41" cy="351" r="7" fill="#d3edc7"/><circle cx="94" cy="299" r="7" fill="#d3edc7"/></g><g transform="matrix(0.09765625 0 0 0.09765625 150 325)" id="L1_47"><g><path d="m74.653 507.613-24.269-26.5 19.94-18.294 24.269 26.5c5.045 5.509 4.672 14.07-.835 19.122-5.506 5.052-14.06 4.681-19.105-.828z" fill="#fdade0"/><path d="m37.524 480.556-31.58-34.483c-8.441-9.217-7.816-23.541 1.397-31.992 9.212-8.452 23.524-7.832 31.965 1.385l31.58 34.483c8.441 9.217 7.816 23.541-1.397 31.992-9.213 8.452-23.524 7.832-31.965-1.385z" fill="#3c6d91"/><path d="m70.885 449.948-31.58-34.483c-8.441-9.217-22.752-9.837-31.965-1.385-.06.055-.11.117-.17.172.418.392.836.784 1.229 1.213l31.58 34.483c8.386 9.157 7.814 23.348-1.227 31.82 8.547 8.023 21.952 8.23 30.736.172 9.213-8.451 9.838-22.775 1.397-31.992z" fill="#345e80"/><path d="m345.737 21.658c-3.625 50.898-24.194 99.116-58.418 136.949l-29.493 32.602-68.037 83.433-50.272 47.347-92.339 102.073 15.834 17.29 109.705-83.277 64.76-55.841 75.748-50.819 34.857-26.46c40.628-30.841 90.408-47.163 141.383-46.358z" fill="#fdade0"/><path d="m474.012 163.145c-50.975-.805-100.755 15.517-141.383 46.358l-284.302 215.814 14.685 16.035 109.705-83.277 68.932-57.438 71.575-49.221 34.857-26.46c40.628-30.841 90.408-47.163 141.383-46.358z" fill="#fd92d2"/><path d="m507.831 158.585-140.489-153.403c-5.957-6.505-16.087-6.946-22.591-.983-6.465 5.927-6.904 15.946-.982 22.412l140.489 153.403c5.957 6.505 16.087 6.946 22.591.983 6.464-5.927 6.904-15.946.982-22.412z" fill="#3c6d91"/><path d="m507.831 158.585-140.489-153.403c-5.957-6.505-16.087-6.946-22.591-.983-.164.15-.308.315-.464.47.173.172.353.331.519.513l140.489 153.403c5.771 6.302 5.484 15.967-.518 21.941 6.012 5.994 15.749 6.267 22.071.471 6.465-5.927 6.905-15.946.983-22.412z" fill="#345e80"/></g><path d="m313.258 251.458-55.432-60.249-118.309 130.78 33.2 36.086z" fill="#ffdff3"/><path d="m298.496 235.413-140.504 106.656 14.725 16.005.026-.019 140.478-106.637z" fill="#ffceed"/></g><path d="M165,0C74.019,0,0,74.019,0,165s74.019,165,165,165c90.982,0,165-74.019,165-165S255.982,0,165,0z" transform="matrix(0.03030303120613098 0 0 0.03030303120613098 257.5 257.5)" id="L1_48" fill="#015868"/><g transform="matrix(0.05859375 0 0 0.05859375 335 160)" id="L1_49"><g><path d="m116.664 69.749h49.045v268.422h-49.045z" transform="matrix(0.866 -0.5 0.5 0.866 -83.065 97.919)" fill="#e9f5ff"/><path d="m95.319 75.469-23.179 13.382 126.484 219.078-19.295 11.14 7.726 13.382 42.475-24.522z" fill="#d7ebfd"/><g><path d="m27.723 7.435c-26.511 15.306-35.594 49.206-20.288 75.716l16.069 27.832c5.69 9.855 18.291 13.231 28.145 7.541l60.318-34.824c9.855-5.69 13.231-18.291 7.541-28.145l-16.069-27.832c-15.306-26.511-49.205-35.594-75.716-20.288z" fill="#f48996"/><path d="m119.508 55.555-16.069-27.832c-13.03-22.568-39.532-32.495-63.483-25.508 13.266 3.843 25.127 12.603 32.577 25.509l16.069 27.832c5.69 9.854 2.313 22.455-7.541 28.145l-54.397 31.406c6.424 6.547 16.674 8.217 24.985 3.419l60.318-34.826c9.854-5.689 13.231-18.291 7.541-28.145z" fill="#ef7280"/><path d="m44.088 84.824-9.888-17.125c-6.772-11.729-2.753-26.726 8.975-33.498 11.729-6.772 26.726-2.754 33.498 8.975l9.888 17.126c.569.985.231 2.246-.754 2.815l-38.905 22.461c-.985.569-2.245.232-2.814-.754z" fill="#ffffff"/></g></g><g><path d="m483.583 471.41h-408.808v-183.903l9.059-30.905c0-17.069 8.46-18.615 25.529-18.615l345.578-3.58c17.069 0 22.672 12.166 22.672 29.235l5.971 23.865v183.903z" fill="#f48996"/><path d="m452.678 225.696h-30.905c17.068 0 30.905 13.837 30.905 30.905v214.809h30.905v-214.809c0-17.069-13.837-30.905-30.905-30.905z" fill="#ef7280"/><path d="m452.678 225.696h-346.998c-17.069 0-30.905 13.837-30.905 30.905v30.905h408.809v-30.905c-.001-17.068-13.837-30.905-30.906-30.905z" fill="#fdd1d5"/><path d="m452.678 225.696h-30.905c17.068 0 30.905 13.837 30.905 30.905v30.905h30.905v-30.905c0-17.069-13.837-30.905-30.905-30.905z" fill="#f9b2bb"/><g><circle cx="433" cy="433" r="78" fill="#3c6d91"/><path d="m433.543 355.086c-5.29 0-10.456.531-15.453 1.53 35.929 7.178 63.004 38.887 63.004 76.927s-27.075 69.749-63.004 76.927c4.997.998 10.162 1.53 15.453 1.53 43.331 0 78.457-35.126 78.457-78.457s-35.126-78.457-78.457-78.457z" fill="#345e80"/><circle cx="433" cy="433" r="28" fill="#ffffff"/></g><g><circle cx="124" cy="433" r="78" fill="#3c6d91"/><path d="m124.815 355.086c-5.29 0-10.456.531-15.453 1.53 35.929 7.178 63.004 38.887 63.004 76.927s-27.075 69.749-63.004 76.927c4.997.998 10.162 1.53 15.453 1.53 43.33 0 78.457-35.126 78.457-78.457s-35.126-78.457-78.457-78.457z" fill="#345e80"/><circle cx="124" cy="433" r="28" fill="#ffffff"/></g></g></g><g transform="matrix(0.17578125 0 0 0.17578125 305 305)" id="L1_50"><g><path d="m422.145 512h-362.145c-33.137 0-60-26.863-60-60v-362.145c0-33.137 26.863-60 60-60h362.145c33.137 0 60 26.863 60 60v362.145c0 33.137-26.863 60-60 60z" fill="#3c6d91"/><path d="m420.334 29.855h-30.905c34.137 0 61.811 27.674 61.811 61.811v358.523c0 34.137-27.674 61.811-61.811 61.811h30.905c34.137 0 61.811-27.674 61.811-61.811v-358.523c0-34.137-27.674-61.811-61.811-61.811z" fill="#345e80"/><g><path d="m241.072 465.524h163.612c17.112 0 30.984-13.872 30.984-30.984v-163.612h-43.891c-3.336 0-5.632-3.227-4.681-6.425.691-2.321 1.081-4.766 1.081-7.353 0-17.711-16.673-31.444-35.03-26.533-9.663 2.585-17.077 10.499-19.374 20.234-1.098 4.652-.949 9.079.259 13.188 0 .138-.138.276 0 .413l.021.07c.945 3.198-1.452 6.405-4.786 6.405h-88.195z" fill="#b1d8fc"/><g fill="#88c7fc"><path d="m357.272 257.15c0 2.587-.39 5.032-1.081 7.353-.951 3.197 1.345 6.425 4.681 6.425h30.905c-3.336 0-5.632-3.227-4.681-6.425.69-2.321 1.081-4.766 1.081-7.353 0-17.711-16.673-31.444-35.03-26.533-2.906.777-5.603 2.045-8.025 3.691 7.319 4.942 12.15 13.313 12.15 22.842z"/><path d="m404.763 270.928v163.612c0 17.112-13.872 30.984-30.984 30.984h30.905c17.112 0 30.984-13.872 30.984-30.984v-163.612z"/></g><path d="m46.476 270.928v163.612c0 17.112 13.872 30.984 30.984 30.984h163.612v-43.178c0-3.583 3.358-6.132 6.848-5.318.06.014.119.027.179.041 2.204.689 4.409.964 6.751.964 17.825 0 31.622-16.889 26.436-35.386-2.686-9.581-10.643-16.841-20.342-19.067-4.546-1.044-8.798-.882-12.845.309h-.138l-.074.017c-3.495.783-6.814-1.875-6.814-5.457v-87.521z" fill="#fddf7a"/><path d="m241.072 76.332v43.891c0 3.336-3.227 5.632-6.425 4.681-2.321-.691-4.766-1.081-7.353-1.081-17.711 0-31.444 16.673-26.533 35.03 2.585 9.663 10.499 17.077 20.234 19.374 4.652 1.098 9.079.949 13.188-.259h.413l.07-.021c3.198-.945 6.405 1.452 6.405 4.786v88.195h-87.521c-3.581 0-6.24 3.32-5.457 6.814l.017.074c.138.138 0 .138 0 .138 1.19 4.046 1.352 8.298.309 12.845-2.226 9.699-9.486 17.656-19.067 20.342-18.497 5.186-35.386-8.611-35.386-26.436 0-2.342.276-4.547.964-6.751.013-.06.027-.119.041-.179.815-3.49-1.734-6.848-5.318-6.848h-43.177v-163.611c0-17.112 13.872-30.984 30.984-30.984z" fill="#fdade0"/></g></g><path d="m512 30.905v158.298c0 2.708-2.195 4.904-4.904 4.904h-38.879c-3.327 0-5.615-3.224-4.667-6.418.69-2.308 1.082-4.749 1.082-7.325 0-17.668-16.638-31.369-34.944-26.476-9.642 2.586-17.029 10.477-19.326 20.192-1.092 4.636-.948 9.055.258 13.155 0 .134-.134.268 0 .412 1.06 3.177-1.305 6.459-4.654 6.459h-83.169c-2.708 0-4.904-2.195-4.904-4.904v-78.295c0-3.312-3.244-5.653-6.387-4.608l-.062.021h-.412c-4.1 1.205-8.52 1.35-13.155.258-9.715-2.297-17.606-9.684-20.192-19.326-4.893-18.306 8.808-34.944 26.476-34.944 2.575 0 5.017.391 7.324 1.082 3.194.948 6.408-1.339 6.408-4.667v-43.819c0-2.708 2.195-4.904 4.904-4.904h158.298c17.068 0 30.905 13.837 30.905 30.905z" fill="#ade499"/><g fill="#87d8a2"><path d="m421.643 157.6c-6.274-4.252-14.387-5.977-22.86-3.712-9.642 2.586-17.029 10.477-19.326 20.192-1.092 4.636-.948 9.055.258 13.155 0 .134-.134.268 0 .412 1.06 3.177-1.305 6.459-4.654 6.459h30.905c3.349 0 5.714-3.282 4.654-6.459-.134-.144 0-.278 0-.412-1.205-4.1-1.35-8.52-.258-13.155 1.603-6.777 5.687-12.66 11.281-16.48z"/><path d="m481.095 0h-30.905c17.069 0 30.905 13.837 30.905 30.905v158.298c0 2.708-2.195 4.904-4.904 4.904h30.905c2.708 0 4.904-2.195 4.904-4.904v-158.298c0-17.068-13.837-30.905-30.905-30.905z"/></g></g></defs><g fi:class="KUsePattern"><pattern id="pattern_L1_46" width="350" height="350" patternUnits="userSpaceOnUse"><use xlink:href="#L1_46" x="-350" y="-350"/><use xlink:href="#L1_46" x="0" y="-350"/><use xlink:href="#L1_46" x="350" y="-350"/><use xlink:href="#L1_46" x="-350" y="0"/><use xlink:href="#L1_46" x="0" y="0"/><use xlink:href="#L1_46" x="350" y="0"/><use xlink:href="#L1_46" x="-350" y="350"/><use xlink:href="#L1_46" x="0" y="350"/><use xlink:href="#L1_46" x="350" y="350"/></pattern><rect x="0" y="0" width="100%" height="100%" fill="url(#pattern_L1_46)"/></g><g fi:class="KUsePattern"><pattern id="pattern_L1_47" width="350" height="350" patternUnits="userSpaceOnUse"><use xlink:href="#L1_47" x="-350" y="-350"/><use xlink:href="#L1_47" x="0" y="-350"/><use xlink:href="#L1_47" x="350" y="-350"/><use xlink:href="#L1_47" x="-350" y="0"/><use xlink:href="#L1_47" x="0" y="0"/><use xlink:href="#L1_47" x="350" y="0"/><use xlink:href="#L1_47" x="-350" y="350"/><use xlink:href="#L1_47" x="0" y="350"/><use xlink:href="#L1_47" x="350" y="350"/></pattern><rect x="0" y="0" width="100%" height="100%" fill="url(#pattern_L1_47)"/></g><g fi:class="KUsePattern"><pattern id="pattern_L1_48" width="350" height="350" patternUnits="userSpaceOnUse"><use xlink:href="#L1_48" x="-350" y="-350"/><use xlink:href="#L1_48" x="0" y="-350"/><use xlink:href="#L1_48" x="350" y="-350"/><use xlink:href="#L1_48" x="-350" y="0"/><use xlink:href="#L1_48" x="0" y="0"/><use xlink:href="#L1_48" x="350" y="0"/><use xlink:href="#L1_48" x="-350" y="350"/><use xlink:href="#L1_48" x="0" y="350"/><use xlink:href="#L1_48" x="350" y="350"/></pattern><rect x="0" y="0" width="100%" height="100%" fill="url(#pattern_L1_48)"/></g><g fi:class="KUsePattern"><pattern id="pattern_L1_49" width="350" height="350" patternUnits="userSpaceOnUse"><use xlink:href="#L1_49" x="-350" y="-350"/><use xlink:href="#L1_49" x="0" y="-350"/><use xlink:href="#L1_49" x="350" y="-350"/><use xlink:href="#L1_49" x="-350" y="0"/><use xlink:href="#L1_49" x="0" y="0"/><use xlink:href="#L1_49" x="350" y="0"/><use xlink:href="#L1_49" x="-350" y="350"/><use xlink:href="#L1_49" x="0" y="350"/><use xlink:href="#L1_49" x="350" y="350"/></pattern><rect x="0" y="0" width="100%" height="100%" fill="url(#pattern_L1_49)"/></g><g fi:class="KUsePattern"><pattern id="pattern_L1_50" width="350" height="350" patternUnits="userSpaceOnUse"><use xlink:href="#L1_50" x="-350" y="-350"/><use xlink:href="#L1_50" x="0" y="-350"/><use xlink:href="#L1_50" x="350" y="-350"/><use xlink:href="#L1_50" x="-350" y="0"/><use xlink:href="#L1_50" x="0" y="0"/><use xlink:href="#L1_50" x="350" y="0"/><use xlink:href="#L1_50" x="-350" y="350"/><use xlink:href="#L1_50" x="0" y="350"/><use xlink:href="#L1_50" x="350" y="350"/></pattern><rect x="0" y="0" width="100%" height="100%" fill="url(#pattern_L1_50)"/></g></svg>